# xmcd
#
# Track frame offsets: 
#        150
#        15302
#        29733
#        45948
#        67100
#        89072
#        109791
#        127814
#        150335
#        167051
#        189154
#        210371
#        227692
#        248316
#        268986
#        292401
#        314393
#        339379
#
# Disc length: 4767 seconds
#
# Revision: 0
# Processed by: cddbd v1.5.2PL0 Copyright (c) Steve Scherf et al.
# Submitted via: ExactAudioCopyFreeDBPlugin 1.0
#
DISCID=f2129d12
DTITLE=Ozone - Jump on It and Lil' Suzy
DYEAR=2013
DGENRE=R&B
TTITLE0=Jump on It
TTITLE1=Come on In
TTITLE2=Your Love Stays on My Mind
TTITLE3=Ozonic Bee Bop
TTITLE4=Mighty Mighty
TTITLE5=Rock and Roll, Pop and Soul 
TTITLE6=Love Zone
TTITLE7=My Fantasy
TTITLE8=Let the Ozone Take Your Mind
TTITLE9=Comin' After Your Love
TTITLE10=You'll Never Know How Much (I Love You)
TTITLE11=Ain't Got Far to Go
TTITLE12=Funkin' on the One (Make Your Body Move)
TTITLE13=Lil' Suzy
TTITLE14=Aerobic Jamercise
TTITLE15=She's a Ten
TTITLE16=I'm Not Easy
TTITLE17=Shake It Down
EXTD=
EXTT0=
EXTT1=
EXTT2=
EXTT3=
EXTT4=
EXTT5=
EXTT6=
EXTT7=
EXTT8=
EXTT9=
EXTT10=
EXTT11=
EXTT12=
EXTT13=
EXTT14=
EXTT15=
EXTT16=
EXTT17=
PLAYORDER=
